<svg viewBox="0 0 190 36" fill="currentColor" width="100%" height="100%" vector-path="non-scaling-stroke" fill-rule="evenodd" clip-rule="evenodd" class="layout_footer_logo"><path d="M20.2816 16.0001C19.1862 14.9907 17.7918 14.3112 16.492 13.4513C17.7476 12.1912 18.4457 10.5147 18.528 8.60355C18.6995 4.62525 16.0362 1.26177 11.8939 0.849663C10.5209 0.713088 9.14129 0.641231 7.75546 0.601257L0.0297852 0.514648C0.0297852 0.514648 0.0297852 2.62753 0.0297852 2.71652C0.0297852 4.67236 1.60239 6.25797 3.54189 6.25797H5.93715C7.18658 6.25797 9.21923 6.23655 10.0528 6.27129C11.5556 6.33458 12.6092 7.1174 12.9224 8.25902C13.2593 9.48772 12.8235 10.7588 11.5674 11.5816C11.1259 11.8709 10.434 12.283 10.1579 12.4448C7.19704 14.1413 7.38714 17.6694 7.38714 17.6694C7.38714 17.6694 11.0323 17.3301 13.5222 18.0087C13.563 18.0197 13.6001 18.0325 13.6343 18.0463C14.6794 18.3109 15.6389 18.8596 16.3665 19.7157C17.8293 21.4374 18.1292 23.428 17.4016 25.5318C16.6488 27.7099 14.9617 28.8772 12.7765 29.0452L10.8085 29.2155V29.2165C8.91079 29.265 7.38714 30.8311 7.38714 32.7565C7.38714 32.7618 7.38714 32.767 7.38714 32.7722H7.38334V34.9612L7.62572 34.9579C7.62572 34.9579 11.518 35.0174 14.006 34.7861C16.117 34.4511 18.0266 33.5284 19.7522 32.1017C24.5893 28.1025 24.9087 20.2625 20.2812 15.9991L20.2816 16.0001Z" stroke="none" stroke-width="var(--svg-stroke-width--main)" vector-effect="non-scaling-stroke"></path><path d="M27.0269 34.9591L27.0269 4.04112C27.0269 2.08861 28.6075 0.505859 30.5575 0.505859L32.6229 0.505859L32.6229 34.9586H27.0269V34.9591Z" stroke="none" stroke-width="var(--svg-stroke-width--main)" vector-effect="non-scaling-stroke"></path><path d="M48.2766 11.4346C55.3526 11.4346 60.4858 16.3432 60.4858 23.4746C60.4858 30.6061 55.3521 35.5147 48.2766 35.5147C41.201 35.5147 36.0674 30.6061 36.0674 23.4746C36.0674 16.3432 41.2006 11.4346 48.2766 11.4346ZM48.2766 30.4671C52.1613 30.4671 54.8436 27.6424 54.8436 23.4746C54.8436 19.3069 52.1613 16.4822 48.2766 16.4822C44.3919 16.4822 41.7096 19.3069 41.7096 23.4746C41.7096 27.6424 44.3919 30.4671 48.2766 30.4671Z" stroke="none" stroke-width="var(--svg-stroke-width--main)" vector-effect="non-scaling-stroke"></path><path d="M75.3733 11.3887C81.6167 11.3887 85.8716 14.8616 86.4728 20.3722H80.8306C80.1833 17.7792 78.2871 16.4363 75.6048 16.4363C71.9976 16.4363 69.5929 19.1683 69.5929 23.4749C69.5929 27.7816 71.8127 30.4674 75.4199 30.4674C78.241 30.4674 80.2294 29.0783 80.8306 26.5776H86.5189C85.825 31.9031 81.3852 35.5611 75.4194 35.5611C68.4822 35.5611 63.9502 30.7453 63.9502 23.4749C63.9502 16.2045 68.621 11.3887 75.3733 11.3887Z" stroke="none" stroke-width="var(--svg-stroke-width--main)" vector-effect="non-scaling-stroke"></path><path d="M90.5854 34.8917V3.97374C90.5854 2.02123 92.1661 0.438477 94.1161 0.438477L96.1815 0.438477V21.601L104.619 12.4795C105.287 11.7581 106.225 11.3484 107.207 11.3484H112.742L103.442 21.0914L111.951 34.8912H105.477L99.5111 25.2591L96.181 28.732V34.8908H90.585L90.5854 34.8917Z" stroke="none" stroke-width="var(--svg-stroke-width--main)" vector-effect="non-scaling-stroke"></path><path d="M114.198 11.1094H117.461C119.012 11.1094 120.381 12.123 120.836 13.6082L123.077 21.8665C123.585 23.6724 124.048 25.3604 124.464 27.4909C124.88 25.268 125.296 24.1359 126.036 21.8665L129.181 11.1094L134.915 11.1094L137.968 21.8665C138.245 22.7926 139.17 25.9162 139.448 27.4442C139.818 25.7306 140.558 23.3017 140.974 21.8665L143.254 13.5939C143.713 12.1163 145.079 11.1099 146.625 11.1099H149.992L142.084 34.6228H136.812L133.667 25.0163C132.742 22.0064 132.233 19.8298 132.048 18.672C131.817 19.737 131.401 21.3578 130.245 25.1086L127.1 34.6228H121.596L114.197 11.1099L114.198 11.1094Z" stroke="none" stroke-width="var(--svg-stroke-width--main)" vector-effect="non-scaling-stroke"></path><path d="M151.07 28.4292C151.07 24.2154 154.122 21.5757 159.534 21.1588L166.378 20.6496V20.1405C166.378 17.0378 164.528 15.7876 161.661 15.7876C158.331 15.7876 156.481 17.1767 156.481 19.5851H151.671C151.671 14.6303 155.741 11.3887 161.938 11.3887C168.135 11.3887 171.881 14.7226 171.881 21.067V34.9592H170.055C168.272 34.9592 166.769 33.6281 166.551 31.8569L166.516 31.579C165.545 33.9408 162.447 35.5616 158.886 35.5616C154.03 35.5616 151.07 32.7368 151.07 28.4302V28.4292ZM166.424 25.6972V24.4933L161.661 24.8635C158.146 25.1876 156.805 26.3454 156.805 28.1975C156.805 30.2813 158.192 31.3002 160.735 31.3002C164.204 31.3002 166.424 29.2163 166.424 25.6968L166.424 25.6972Z" stroke="none" stroke-width="var(--svg-stroke-width--main)" vector-effect="non-scaling-stroke"></path><path d="M175.353 34.9591V4.04112C175.353 2.08861 176.934 0.505859 178.884 0.505859L180.949 0.505859V34.9586H175.353V34.9591Z" stroke="none" stroke-width="var(--svg-stroke-width--main)" vector-effect="non-scaling-stroke"></path><path d="M184.404 34.9591V4.04112C184.404 2.08861 185.984 0.505859 187.934 0.505859L190 0.505859V34.9586H184.404V34.9591Z" stroke="none" stroke-width="var(--svg-stroke-width--main)" vector-effect="non-scaling-stroke"></path><path d="M5.63172 8.00243C5.23964 8.00243 4.3628 8.00291 3.5121 8.00291C1.57213 8.00291 0 9.57757 0 11.5196L0 34.9445L5.62554 34.9588L5.63172 8.00195V8.00243Z" stroke="none" stroke-width="var(--svg-stroke-width--main)" vector-effect="non-scaling-stroke"></path></svg>